PathFileType	4	(X/Y/Z)	Patient4_TMGait_0pt3_03_left_20.trc.trc
DataRate	CameraRate	NumFrames	NumMarkers	Units	OrigDataRate	OrigDataStartFrame	OrigNumFrames
58.333333333333	58.333333333333	4	33	mm	58.333333333333	124	       141
Frame#	Time	Sacral			L.Shoulder			Chest			R.Shoulder			Neck			R.ASIS			L.ASIS			R.Thigh.Superior			R.Thigh.Lateral			R.Thigh.Inferior			R.Patella			L.Thigh.Superior			L.Thigh.Lateral			L.Thigh.Inferior			L.Patella			L.Shank.Superior			L.Shank.Lateral			L.Shank.Inferior			R.Shank.Superior			R.Shank.Lateral			R.Shank.Inferior			R.Heel			R.Midfoot.Superior			R.Midfoot.Lateral			R.Toe			L.Heel			L.Midfoot.Lateral			L.Midfoot.Superior			L.Toe			L.Elbow			L.Wrist			R.Elbow			R.Wrist			
		X1	Y1	Z1	X2	Y2	Z2	X3	Y3	Z3	X4	Y4	Z4	X5	Y5	Z5	X6	Y6	Z6	X7	Y7	Z7	X8	Y8	Z8	X9	Y9	Z9	X10	Y10	Z10	X11	Y11	Z11	X12	Y12	Z12	X13	Y13	Z13	X14	Y14	Z14	X15	Y15	Z15	X16	Y16	Z16	X17	Y17	Z17	X18	Y18	Z18	X19	Y19	Z19	X20	Y20	Z20	X21	Y21	Z21	X22	Y22	Z22	X23	Y23	Z23	X24	Y24	Z24	X25	Y25	Z25	X26	Y26	Z26	X27	Y27	Z27	X28	Y28	Z28	X29	Y29	Z29	X30	Y30	Z30	X31	Y31	Z31	X32	Y32	Z32	X33	Y33	Z33	

124	36.898571428571	709.069860368945	1005.425130996267	542.078648074739	846.247736795160	1433.049962070850	336.585153662691	978.546406442850	1369.308685946685	476.448220612886	925.492378340984	1442.585603259884	661.641729105966	846.305840418920	1492.049723329976	495.002196542239	950.208081394273	934.537269190596	620.620953460837	898.091891155016	964.566248200997	352.299036501366	959.483237641747	724.256355833596	582.943028129232	874.559066992536	621.327501972673	654.430624989996	929.567740849613	563.337800790083	563.637970661585	917.568121536317	474.735513406727	570.157524437070	969.400355138768	765.148778370338	378.710850957811	905.371764635501	640.935902310341	307.469251569440	1003.553824104583	576.295398743973	368.243346119141	1021.831568979201	510.938304777573	367.357801537317	1004.145568219131	439.184471983000	355.152219979166	934.566339046588	312.812401190618	299.639659564732	1014.792138821071	209.053118445560	357.369406079315	877.176772099103	388.971711293698	580.761263570498	796.765257620352	294.670341973117	647.797799610664	817.796952492882	197.462582663427	581.590709848732	661.138250915273	42.520042434621	557.942617096120	833.634719705509	96.043855911175	591.204083504485	744.894501014956	36.686633496050	632.020258906011	952.953103514163	43.704566544430	619.695051921250	919.332089994043	36.340914578336	387.664987539730	998.769768014824	37.798516424769	312.659253924184	1072.687125366286	110.275064531385	340.690348517452	1205.876217987607	72.699595671972	322.548222736528	709.232855310606	1103.572836955610	256.707436975410	683.309945044270	844.743956741372	270.246815726202	1111.067114005502	1168.086653026146	785.297575108426	1339.156639316576	1264.345324827174	730.267878460376	
125	36.915714285714	709.574199497488	1004.781850153071	539.745123915794	846.950646868623	1431.761831481467	333.067562957082	979.516065143697	1368.106924999757	472.768809182556	926.871257612942	1441.874916838531	657.858124885489	847.312256372733	1491.155896791919	491.302200023688	950.817517630280	933.654111722006	617.897787666087	898.037029450015	963.275462945050	349.676086984425	959.150544082689	723.098577494732	580.682448040071	873.721511915391	620.639951485407	652.519696002244	928.028369517688	562.166010967209	561.793219129778	915.252480779426	473.567132634902	568.523248221335	968.815825258238	763.402316455802	375.603975836272	902.627176399752	639.234863847148	306.030983801110	1001.189193158547	574.711821482652	365.927699876349	1017.993885963815	509.242209545296	365.895763571852	1001.220942837934	437.501602761256	353.786470562381	931.905034712106	310.816079786333	299.111163829944	1012.422046754295	207.647902406840	357.335869056928	874.298650077319	388.129878992571	579.474899931076	793.355186421854	294.580426910366	647.083334993319	813.531051296504	197.049765916100	581.097163176985	656.033632442735	42.535643823635	557.943219442367	828.502244504146	95.886913161496	590.924070974112	739.786339954519	36.635546029360	631.995100543865	947.849693307792	43.623224814223	619.675541205847	916.633301570556	36.409943956820	388.541216682794	995.886673096955	37.102833703388	313.245717098983	1070.642604046650	108.366514672365	341.409491802115	1203.341523018551	69.109920716928	323.019571754471	708.697486565137	1102.590919958430	254.795755129254	683.031971690352	843.500413598337	269.003593724152	1115.574382132579	1169.656697249098	780.027772583246	1337.926806628358	1276.772255885337	723.230320950963	
126	36.932857142857	710.126718284966	1004.031785646350	537.200853522668	847.737820789495	1430.334581736981	329.350959849478	980.502483414235	1366.869552269375	468.998418633369	928.141232947130	1441.119628390213	653.965863346421	848.318421071803	1490.211734102006	487.378804333530	951.514789024043	932.713241662046	615.123912016426	898.170087863396	962.030132251116	346.986237833158	959.103105761165	721.907427185602	578.357050448205	873.217608887726	619.840165307732	650.428863585946	926.963136734565	560.916697718530	559.831362979219	913.452284965469	472.281791205129	566.737590031008	968.818883316950	761.993348137392	372.645129399800	900.917348996727	637.813969276897	304.563395171990	999.772729763911	573.419028453554	363.737745806656	1015.140961144904	507.651649411580	364.464260418603	998.962390680992	435.836495978243	352.432156188836	929.395297140291	309.220773521126	298.338283204067	1009.508144134838	206.205398854327	357.141695092291	871.782820013593	387.198656774325	578.053192179243	790.195567464333	294.525564526615	646.273364698577	809.425999047170	196.615954718870	580.540663733464	650.967863213303	42.598287450685	557.932977073331	823.406693332700	95.705055382100	590.576792012417	734.718378720117	36.607039020210	631.949349997787	942.783089804215	43.490060580311	619.666324297021	912.513227757537	36.679460830298	389.143479081706	991.531053204995	36.534842212529	313.493468647552	1067.360254002936	106.363744403947	341.853598642218	1199.457818075640	65.159599228265	323.052141963801	709.284382171995	1100.964089649088	252.565113543681	684.489950885049	841.535896739067	267.188034583962	1119.280106358901	1170.539173303630	774.758428421587	1336.163004618984	1287.086140771364	716.456428268837	
127	36.950000000000	710.735972071344	1003.300511366994	534.464577761768	848.570296730042	1428.888603769538	325.484474134205	981.493891861984	1365.699402598912	465.151480844472	929.332727520777	1440.417145625043	649.993730497324	849.317326363195	1489.309513771235	483.291406028655	952.280817637683	931.803522156439	612.284076712054	898.490780140707	960.940915843856	344.218461488655	959.180173737820	720.733230016208	575.970764079168	872.834442088797	619.031575469222	648.200252646939	926.137047306197	559.659484879305	557.797873230331	911.923887366027	470.978088691293	564.863365570090	969.363384585909	760.996493077339	369.856975383251	900.233511065577	636.736356393275	303.019669041616	999.244165554228	572.443519050654	361.679743003645	1013.287007598993	506.263662194752	363.084144025870	997.418606902721	434.290854143683	351.136966191270	927.248616417689	308.027844774944	297.324911638767	1006.339882377226	204.802782110770	356.846198252889	869.441318747955	386.270188281003	576.551373209418	787.137881431195	294.557649805453	645.396562212415	805.404473014306	196.224032351417	579.947741429117	645.936641025517	42.736888733110	557.910721775669	818.359270938597	95.529256006121	590.202454631291	729.687335076242	36.621191304950	631.882378907192	937.746305064366	43.306340577648	619.667315202882	907.469715978738	37.042119098605	389.484369261374	986.252302101853	36.081055958647	313.475963681367	1063.241221597494	104.411955588596	342.101569255203	1194.707646137659	61.229710788994	322.831110883339	710.865317880775	1098.857229447428	250.020354749066	687.687295180446	839.027078107321	264.754223197951	1122.144888690756	1170.772120999911	769.559703977754	1334.069185207670	1295.246815174674	709.977476847496	
